<svg id="Layer_1" data-name="Layer 1" xmlns="http://www.w3.org/2000/svg" viewBox="0 0 15.66 16.99"><defs><style>.cls-1{opacity:0.63;}</style></defs><path class="cls-1" d="M15,5.25a1.78,1.78,0,0,0-1.85-.52A4,4,0,0,0,11.32,5.8C10.73,3.71,9.47.6,8.23.08a1,1,0,0,0-.87,0C6.59.56,6.08,2,6.46,4.62c-1.63-2.95-2.21-3-2.5-3H4a.69.69,0,0,0-.65.44c-.19.4-.53,1.64.26,4.26C2.57,5,2.27,4.84,1.86,4.86a.71.71,0,0,0-.62.41c-.33.6-.3,2.12.66,4.37A1.86,1.86,0,0,0,.75,9.21a.8.8,0,0,0-.64.4c-.43.78.44,2.88,1.51,4.36a6.65,6.65,0,0,0,5.16,3,5.56,5.56,0,0,0,1-.1.51.51,0,0,0,.4-.59.5.5,0,0,0-.59-.39h0a4.9,4.9,0,0,1-4.51-1.7,8.43,8.43,0,0,1-2.13-4A9.46,9.46,0,0,1,3.74,13a.5.5,0,1,0,.82-.58h0C2.29,9,2,6.86,2.06,6.07c.72.78,2.38,3.29,3.65,5.19a.5.5,0,0,0,.67.15.49.49,0,0,0,.18-.66C4.24,6.45,3.9,3.9,4.11,2.84c.43.46,1.51,2,3.69,6.75a.5.5,0,0,0,.64.25.49.49,0,0,0,.28-.63c-2.18-6-1.24-8-.9-8.21.48.06,1.81,2.35,2.6,5.27a2.08,2.08,0,0,0,.14.53,2.56,2.56,0,0,0-.27.64c-.47,1.67-.9,5.47,0,6.5a.87.87,0,0,0,.77.33,1.16,1.16,0,0,0,.89-.55c.82-1.18.36-4.15-.28-6.75a3.32,3.32,0,0,1,1.75-1.26.82.82,0,0,1,.89.2c.36.41,1,2-1,7.42a.48.48,0,0,0,.28.63h0a.5.5,0,0,0,.64-.3C15.82,9.28,16.08,6.45,15,5.25Zm-3.92,7.91a.27.27,0,0,1-.11.1c-.3-.45-.3-2.6,0-4.48.54,2.54.44,3.91.12,4.38Z" transform="translate(0 0.02)"/><polygon points="10.1 12.96 10.1 3.93 15.42 8.45 10.1 12.96"/><polygon points="6.07 13.11 6.07 4.07 11.4 8.59 6.07 13.11"/></svg>